<mxfile host="app.diagrams.net" modified="2023-07-18T09:51:51.191Z" agent="Mozilla/5.0 (Windows NT 10.0; Win64; x64; rv:109.0) Gecko/20100101 Firefox/114.0" etag="zqUk4JehEfWGOvWPUgqH" version="21.6.2">
  <diagram name="Page-1" id="jT81VOFueob0oWWeU9Mt">
    <mxGraphModel dx="792" dy="1151" grid="1" gridSize="10" guides="1" tooltips="1" connect="1" arrows="1" fold="1" page="1" pageScale="1" pageWidth="1100" pageHeight="850" math="0" shadow="0">
      <root>
        <mxCell id="0" />
        <mxCell id="1" parent="0" />
        <mxCell id="Kx07bvd-4rYV5RhQG2fd-19" value="Registers" style="rounded=1;whiteSpace=wrap;html=1;" parent="1" vertex="1">
          <mxGeometry x="490.5" y="30" width="120" height="60" as="geometry" />
        </mxCell>
        <mxCell id="Kx07bvd-4rYV5RhQG2fd-20" value="&lt;div&gt;L1 Cache&lt;/div&gt;" style="rounded=1;whiteSpace=wrap;html=1;" parent="1" vertex="1">
          <mxGeometry x="460.5" y="140" width="180" height="60" as="geometry" />
        </mxCell>
        <mxCell id="Kx07bvd-4rYV5RhQG2fd-21" value="L2 Cache" style="rounded=1;whiteSpace=wrap;html=1;" parent="1" vertex="1">
          <mxGeometry x="430" y="250" width="240" height="60" as="geometry" />
        </mxCell>
        <mxCell id="Kx07bvd-4rYV5RhQG2fd-22" value="L3 Cache" style="rounded=1;whiteSpace=wrap;html=1;" parent="1" vertex="1">
          <mxGeometry x="378" y="360" width="345" height="60" as="geometry" />
        </mxCell>
        <mxCell id="Kx07bvd-4rYV5RhQG2fd-23" value="Memory (RAM)" style="rounded=1;whiteSpace=wrap;html=1;" parent="1" vertex="1">
          <mxGeometry x="320.5" y="470" width="460" height="60" as="geometry" />
        </mxCell>
        <mxCell id="Kx07bvd-4rYV5RhQG2fd-24" value="Storage (HDD, SSD, NVMe)" style="rounded=1;whiteSpace=wrap;html=1;" parent="1" vertex="1">
          <mxGeometry x="250.5" y="580" width="600" height="60" as="geometry" />
        </mxCell>
        <mxCell id="Kx07bvd-4rYV5RhQG2fd-25" value="&lt;font style=&quot;font-size: 24px;&quot;&gt;Faster/Smaller&lt;/font&gt;" style="text;html=1;strokeColor=none;fillColor=none;align=center;verticalAlign=middle;whiteSpace=wrap;rounded=0;" parent="1" vertex="1">
          <mxGeometry x="10" y="80" width="190" height="50" as="geometry" />
        </mxCell>
        <mxCell id="Kx07bvd-4rYV5RhQG2fd-26" value="&lt;font style=&quot;font-size: 24px;&quot;&gt;Slower/Larger&lt;/font&gt;" style="text;html=1;strokeColor=none;fillColor=none;align=center;verticalAlign=middle;whiteSpace=wrap;rounded=0;" parent="1" vertex="1">
          <mxGeometry x="10" y="580" width="190" height="50" as="geometry" />
        </mxCell>
        <mxCell id="diblLVswrhK0cE1U2o6_-1" value="" style="shape=flexArrow;endArrow=classic;startArrow=classic;html=1;rounded=0;entryX=0.5;entryY=1;entryDx=0;entryDy=0;exitX=0.5;exitY=0;exitDx=0;exitDy=0;" edge="1" parent="1" source="Kx07bvd-4rYV5RhQG2fd-20" target="Kx07bvd-4rYV5RhQG2fd-19">
          <mxGeometry width="100" height="100" relative="1" as="geometry">
            <mxPoint x="510" y="170" as="sourcePoint" />
            <mxPoint x="610" y="70" as="targetPoint" />
          </mxGeometry>
        </mxCell>
        <mxCell id="diblLVswrhK0cE1U2o6_-2" value="" style="shape=flexArrow;endArrow=classic;startArrow=classic;html=1;rounded=0;entryX=0.5;entryY=1;entryDx=0;entryDy=0;exitX=0.5;exitY=0;exitDx=0;exitDy=0;" edge="1" parent="1" source="Kx07bvd-4rYV5RhQG2fd-21" target="Kx07bvd-4rYV5RhQG2fd-20">
          <mxGeometry width="100" height="100" relative="1" as="geometry">
            <mxPoint x="530" y="300" as="sourcePoint" />
            <mxPoint x="630" y="200" as="targetPoint" />
          </mxGeometry>
        </mxCell>
        <mxCell id="diblLVswrhK0cE1U2o6_-3" value="" style="shape=flexArrow;endArrow=classic;startArrow=classic;html=1;rounded=0;entryX=0.5;entryY=1;entryDx=0;entryDy=0;" edge="1" parent="1" source="Kx07bvd-4rYV5RhQG2fd-22" target="Kx07bvd-4rYV5RhQG2fd-21">
          <mxGeometry width="100" height="100" relative="1" as="geometry">
            <mxPoint x="530" y="410" as="sourcePoint" />
            <mxPoint x="630" y="310" as="targetPoint" />
          </mxGeometry>
        </mxCell>
        <mxCell id="diblLVswrhK0cE1U2o6_-4" value="" style="shape=flexArrow;endArrow=classic;startArrow=classic;html=1;rounded=0;entryX=0.5;entryY=1;entryDx=0;entryDy=0;exitX=0.5;exitY=0;exitDx=0;exitDy=0;" edge="1" parent="1" source="Kx07bvd-4rYV5RhQG2fd-23" target="Kx07bvd-4rYV5RhQG2fd-22">
          <mxGeometry width="100" height="100" relative="1" as="geometry">
            <mxPoint x="560" y="370" as="sourcePoint" />
            <mxPoint x="560" y="320" as="targetPoint" />
          </mxGeometry>
        </mxCell>
        <mxCell id="diblLVswrhK0cE1U2o6_-5" value="" style="shape=flexArrow;endArrow=classic;startArrow=classic;html=1;rounded=0;entryX=0.5;entryY=1;entryDx=0;entryDy=0;" edge="1" parent="1" source="Kx07bvd-4rYV5RhQG2fd-24" target="Kx07bvd-4rYV5RhQG2fd-23">
          <mxGeometry width="100" height="100" relative="1" as="geometry">
            <mxPoint x="561" y="480" as="sourcePoint" />
            <mxPoint x="561" y="430" as="targetPoint" />
          </mxGeometry>
        </mxCell>
        <mxCell id="diblLVswrhK0cE1U2o6_-6" value="" style="shape=flexArrow;endArrow=classic;startArrow=classic;html=1;rounded=0;entryX=0.5;entryY=1;entryDx=0;entryDy=0;" edge="1" parent="1" source="Kx07bvd-4rYV5RhQG2fd-26" target="Kx07bvd-4rYV5RhQG2fd-25">
          <mxGeometry width="100" height="100" relative="1" as="geometry">
            <mxPoint x="110" y="370" as="sourcePoint" />
            <mxPoint x="210" y="270" as="targetPoint" />
          </mxGeometry>
        </mxCell>
        <mxCell id="diblLVswrhK0cE1U2o6_-7" value="&lt;font style=&quot;font-size: 30px;&quot;&gt;CPU Hierarchy Simplified&lt;br&gt;&lt;/font&gt;" style="text;html=1;strokeColor=none;fillColor=none;align=center;verticalAlign=middle;whiteSpace=wrap;rounded=0;" vertex="1" parent="1">
          <mxGeometry x="10" y="10" width="380" height="60" as="geometry" />
        </mxCell>
      </root>
    </mxGraphModel>
  </diagram>
</mxfile>
